<svg xmlns="http://www.w3.org/2000/svg" viewBox="0 0 64 48" fill="none">
  <path d="M12 40H52V43H12V40Z" fill="#A8743A"/>
  <path d="M16 39V24L24 19V39H16Z" fill="#A8743A"/>
  <path d="M24 39V16L34 21V39H24Z" fill="#E7C36B"/>
  <path d="M34 39V22L46 17V39H34Z" fill="#A8743A"/>
  <path d="M20 28H22V31H20V28Z" fill="#E7C36B"/>
  <path d="M20 33H22V36H20V33Z" fill="#E7C36B"/>
  <path d="M28 26H30V29H28V26Z" fill="#A8743A"/>
  <path d="M28 31H30V34H28V31Z" fill="#A8743A"/>
  <path d="M40 26H42V29H40V26Z" fill="#E7C36B"/>
  <path d="M40 31H42V34H40V31Z" fill="#E7C36B"/>
</svg>
